<?xml version="1.0" standalone="no"?><!DOCTYPE svg PUBLIC "-//W3C//DTD SVG 1.1//EN" "http://www.w3.org/Graphics/SVG/1.1/DTD/svg11.dtd"><svg t="1741414948266" class="icon" viewBox="0 0 1024 1024" version="1.1" xmlns="http://www.w3.org/2000/svg" p-id="7215" xmlns:xlink="http://www.w3.org/1999/xlink" width="200" height="200"><path d="M755.2 837.6H272.9c-12.7 0-23.1 12-23.1 26.7s10.4 26.7 23.1 26.7h482.4c12.7 0 23.1-12 23.1-26.7s-10.4-26.7-23.2-26.7zM867.1 135.6H156.9c-25.3 0-45.9 20.5-45.9 45.9v516.4c0 25.3 20.5 45.9 45.9 45.9h710.3c25.3 0 45.9-20.5 45.9-45.9V181.5c-0.1-25.4-20.6-45.9-46-45.9z m-64.8 203.5L604 512.1c-16.3 14.3-40 16.8-59 6.3l-129.5-71.9c-3.2-1.8-7.3-1.2-9.8 1.5L280.1 580.5c-5.9 6.2-14.2 9.7-22.7 9.7-8.2 0-15.9-3.1-21.7-8.8-12.5-12-12.9-31.9-0.9-44.4l135.9-143.4c16.2-16.9 41.9-20.8 62.3-9.4l130.6 72.6c3 1.7 6.7 1.3 9.3-1l188.1-164c6.3-5.5 14.3-8.3 22.8-7.7 8.4 0.6 16 4.4 21.5 10.7 5.5 6.3 8.2 14.4 7.7 22.7-0.5 8.4-4.3 16.1-10.7 21.6z" fill="#3259CE" p-id="7216"></path></svg>